# xmcd CD database file
#
# Track frame offsets:
#	150
#	21022
#	56142
#	83041
#	109362
#	141352
#
# Disc length: 2220 seconds
#
# Revision: 0
# Processed by: cddbd v1.5.2PL0 Copyright (c) Steve Scherf et al.
# Submitted via: CDex 1.81
#
DISCID=4f08aa06
DTITLE=Herbie Hancock - Speak Like A Child
DYEAR=1968
DGENRE=Jazz
TTITLE0=Riot
TTITLE1=Speak Like A Child
TTITLE2=First Trip
TTITLE3=Toys
TTITLE4=Goodbye To Childhood
TTITLE5=The Sorcerer
EXTD=YEAR: 1968
EXTT0=
EXTT1=
EXTT2=
EXTT3=
EXTT4=
EXTT5=
PLAYORDER=
